<svg xmlns="http://www.w3.org/2000/svg" viewBox="0 0 149 149"><path d="M102.15,93.46a28.31,28.31,0,0,0-6.43-9,30.33,30.33,0,0,0-9.54-6.08l-.1,0a18.33,18.33,0,0,0,8.21-15.15c0-10.32-8.86-18.69-19.79-18.69S54.71,52.87,54.71,63.19a18.38,18.38,0,0,0,8.2,15.16l-.09,0a30,30,0,0,0-9.54,6.07,28.62,28.62,0,0,0-6.43,9,26.69,26.69,0,0,0-2.35,10.41.67.67,0,0,0,0,.24.9.9,0,0,0,.14.2.57.57,0,0,0,.21.13.7.7,0,0,0,.25,0h4.79a.61.61,0,0,0,.63-.59,21.91,21.91,0,0,1,7-15.4,25,25,0,0,1,33.86,0,21.91,21.91,0,0,1,7,15.4.61.61,0,0,0,.63.59h4.79a.7.7,0,0,0,.25,0,.57.57,0,0,0,.21-.13.9.9,0,0,0,.14-.2.67.67,0,0,0,0-.24A26.87,26.87,0,0,0,102.15,93.46ZM74.5,76.16a14,14,0,0,1-9.7-3.8A12.46,12.46,0,0,1,64.8,54a14.28,14.28,0,0,1,19.4,0,12.46,12.46,0,0,1,0,18.33A14,14,0,0,1,74.5,76.16Z" fill="#fff"/></svg>