<svg width="852" height="852" viewBox="0 0 852 852" fill="none" xmlns="http://www.w3.org/2000/svg">
<g opacity="0.5">
<path fill-rule="evenodd" clip-rule="evenodd" d="M709.168 296.708L360.652 95.4923C341.17 84.2444 316.259 90.9194 305.011 110.401L103.795 458.918C92.5469 478.399 99.2218 503.311 118.704 514.558L467.22 715.774C486.702 727.022 511.613 720.347 522.861 700.866L724.077 352.349C735.325 332.867 728.65 307.956 709.168 296.708ZM381.018 60.2173C342.054 37.7217 292.231 51.0716 269.736 90.0352L68.5198 438.552C46.0241 477.515 59.374 527.338 98.3377 549.833L446.854 751.049C485.818 773.545 535.64 760.195 558.136 721.232L759.352 372.715C781.848 333.752 768.498 283.929 729.534 261.433L381.018 60.2173Z" fill="url(#paint0_linear)"/>
<path opacity="0.5" fill-rule="evenodd" clip-rule="evenodd" d="M731.239 349.774L406.707 111.802C388.566 98.5 363.076 102.423 349.773 120.564L111.802 445.096C98.4996 463.237 102.422 488.727 120.563 502.029L445.095 740.001C463.237 753.303 488.727 749.381 502.029 731.239L740 406.707C753.303 388.566 749.38 363.076 731.239 349.774ZM430.793 78.955C394.511 52.3502 343.531 60.1953 316.926 96.4775L78.9546 421.01C52.3498 457.292 60.1948 508.272 96.4771 534.877L421.009 772.848C457.292 799.453 508.272 791.608 534.876 755.326L772.848 430.793C799.453 394.511 791.607 343.531 755.325 316.926L430.793 78.955Z" fill="url(#paint1_linear)"/>
</g>
<defs>
<linearGradient id="paint0_linear" x1="365.085" y1="109.143" x2="631.577" y2="323.433" gradientUnits="userSpaceOnUse">
<stop stop-color="#00A4C1"/>
<stop offset="1" stop-color="#2F35A7"/>
</linearGradient>
<linearGradient id="paint1_linear" x1="409.627" y1="125.855" x2="651.199" y2="367.89" gradientUnits="userSpaceOnUse">
<stop stop-color="#00A4C1"/>
<stop offset="1" stop-color="#2F35A7"/>
</linearGradient>
</defs>
</svg>
