<svg width="640" height="640" viewBox="0 0 640 640" fill="none" xmlns="http://www.w3.org/2000/svg">
<g opacity="0.5">
<path fill-rule="evenodd" clip-rule="evenodd" d="M532.528 222.926L270.923 71.8881C256.3 63.4452 237.601 68.4556 229.158 83.0792L78.12 344.684C69.677 359.308 74.6874 378.007 89.311 386.45L350.916 537.487C365.54 545.93 384.239 540.92 392.682 526.296L543.719 264.691C552.162 250.068 547.152 231.369 532.528 222.926ZM286.21 45.4099C256.963 28.5241 219.565 38.5449 202.679 67.7919L51.6417 329.397C34.7559 358.644 44.7767 396.042 74.0237 412.928L335.629 563.966C364.876 580.851 402.274 570.831 419.16 541.584L570.197 279.979C587.083 250.732 577.063 213.333 547.815 196.448L286.21 45.4099Z" fill="url(#paint0_linear)"/>
<path opacity="0.5" fill-rule="evenodd" clip-rule="evenodd" d="M549.095 262.758L305.493 84.1304C291.876 74.1452 272.743 77.0896 262.757 90.7068L84.1303 334.309C74.1452 347.926 77.0895 367.059 90.7067 377.045L334.309 555.672C347.926 565.657 367.059 562.712 377.044 549.095L555.672 305.493C565.657 291.876 562.712 272.743 549.095 262.758ZM323.573 59.4743C296.339 39.504 258.072 45.3927 238.101 72.6271L59.4742 316.229C39.504 343.463 45.3927 381.73 72.627 401.701L316.229 580.328C343.463 600.298 381.73 594.409 401.701 567.175L580.328 323.573C600.298 296.339 594.409 258.072 567.175 238.101L323.573 59.4743Z" fill="url(#paint1_linear)"/>
</g>
<defs>
<linearGradient id="paint0_linear" x1="274.251" y1="82.1347" x2="474.286" y2="242.986" gradientUnits="userSpaceOnUse">
<stop stop-color="#00A4C1"/>
<stop offset="1" stop-color="#2F35A7"/>
</linearGradient>
<linearGradient id="paint1_linear" x1="307.685" y1="94.6783" x2="489.015" y2="276.356" gradientUnits="userSpaceOnUse">
<stop stop-color="#00A4C1"/>
<stop offset="1" stop-color="#2F35A7"/>
</linearGradient>
</defs>
</svg>
