<svg width="715" height="715" viewBox="0 0 715 715" fill="none" xmlns="http://www.w3.org/2000/svg">
<g opacity="0.5">
<path fill-rule="evenodd" clip-rule="evenodd" d="M595.206 249.028L302.696 80.1468C286.344 70.7065 265.436 76.3088 255.996 92.6599L87.1149 385.171C77.6746 401.522 83.2769 422.43 99.6281 431.87L392.139 600.751C408.49 610.192 429.398 604.589 438.838 588.238L607.719 295.727C617.16 279.376 611.557 258.468 595.206 249.028ZM319.789 50.5405C287.087 31.6598 245.27 42.8644 226.39 75.5667L57.5086 368.077C38.628 400.78 49.8326 442.596 82.5348 461.476L375.045 630.358C407.748 649.238 449.564 638.034 468.445 605.331L637.326 312.821C656.206 280.118 645.002 238.302 612.3 219.422L319.789 50.5405Z" fill="url(#paint0_linear)"/>
<path opacity="0.5" fill-rule="evenodd" clip-rule="evenodd" d="M613.731 293.566L341.35 93.836C326.124 82.6712 304.73 85.9634 293.565 101.189L93.8356 373.57C82.6709 388.796 85.9631 410.19 101.189 421.355L373.57 621.084C388.796 632.249 410.189 628.957 421.354 613.731L621.084 341.35C632.249 326.124 628.957 304.731 613.731 293.566ZM361.566 66.2671C331.114 43.9376 288.326 50.522 265.997 80.9737L66.2667 353.355C43.9372 383.806 50.5216 426.594 80.9734 448.923L353.354 648.653C383.806 670.983 426.594 664.398 448.923 633.947L648.653 361.566C670.982 331.114 664.398 288.326 633.946 265.997L361.566 66.2671Z" fill="url(#paint1_linear)"/>
</g>
<defs>
<linearGradient id="paint0_linear" x1="306.416" y1="91.6038" x2="530.084" y2="271.458" gradientUnits="userSpaceOnUse">
<stop stop-color="#00A4C1"/>
<stop offset="1" stop-color="#2F35A7"/>
</linearGradient>
<linearGradient id="paint1_linear" x1="343.801" y1="105.63" x2="546.553" y2="308.771" gradientUnits="userSpaceOnUse">
<stop stop-color="#00A4C1"/>
<stop offset="1" stop-color="#2F35A7"/>
</linearGradient>
</defs>
</svg>
