<svg width="852" height="852" viewBox="0 0 852 852" fill="none" xmlns="http://www.w3.org/2000/svg">
<g opacity="0.5">
<path fill-rule="evenodd" clip-rule="evenodd" d="M142.635 296.708L491.151 95.4923C510.633 84.2444 535.544 90.9194 546.792 110.401L748.008 458.918C759.256 478.399 752.581 503.311 733.099 514.558L384.583 715.774C365.101 727.022 340.19 720.347 328.942 700.866L127.726 352.349C116.478 332.867 123.153 307.956 142.635 296.708ZM470.785 60.2173C509.749 37.7217 559.571 51.0716 582.067 90.0352L783.283 438.552C805.779 477.515 792.429 527.338 753.465 549.833L404.949 751.049C365.985 773.545 316.163 760.195 293.667 721.232L92.4509 372.715C69.9552 333.752 83.3052 283.929 122.269 261.433L470.785 60.2173Z" fill="url(#paint0_linear)"/>
<path opacity="0.5" fill-rule="evenodd" clip-rule="evenodd" d="M120.564 349.774L445.096 111.802C463.237 98.5 488.727 102.423 502.03 120.564L740.001 445.096C753.303 463.237 749.381 488.727 731.24 502.029L406.707 740.001C388.566 753.303 363.076 749.381 349.774 731.239L111.802 406.707C98.5 388.566 102.423 363.076 120.564 349.774ZM421.01 78.955C457.292 52.3502 508.272 60.1953 534.877 96.4775L772.848 421.01C799.453 457.292 791.608 508.272 755.326 534.877L430.793 772.848C394.511 799.453 343.531 791.608 316.926 755.326L78.955 430.793C52.3502 394.511 60.1953 343.531 96.4775 316.926L421.01 78.955Z" fill="url(#paint1_linear)"/>
</g>
<defs>
<linearGradient id="paint0_linear" x1="486.718" y1="109.143" x2="220.226" y2="323.433" gradientUnits="userSpaceOnUse">
<stop stop-color="#00A4C1"/>
<stop offset="1" stop-color="#2F35A7"/>
</linearGradient>
<linearGradient id="paint1_linear" x1="442.176" y1="125.855" x2="200.604" y2="367.89" gradientUnits="userSpaceOnUse">
<stop stop-color="#00A4C1"/>
<stop offset="1" stop-color="#2F35A7"/>
</linearGradient>
</defs>
</svg>
