<svg width="15" height="12" viewBox="0 0 15 12" fill="none" xmlns="http://www.w3.org/2000/svg">
<path fill-rule="evenodd" clip-rule="evenodd" d="M12.6372 0.398958C12.8941 0.144315 13.2409 0.0010032 13.6026 5.24681e-06C13.9643 -0.000992703 14.3119 0.140403 14.5702 0.393625C14.8285 0.646846 14.9767 0.991547 14.9829 1.3532C14.989 1.71486 14.8526 2.06441 14.6031 2.32629L7.27559 11.4857C7.14965 11.6213 6.99766 11.7302 6.82869 11.8057C6.65972 11.8813 6.47725 11.922 6.29219 11.9254C6.10713 11.9289 5.92328 11.8949 5.75163 11.8257C5.57999 11.7564 5.42406 11.6533 5.29319 11.5224L0.438161 6.66553C0.302905 6.5395 0.19442 6.38751 0.119178 6.21864C0.0439348 6.04977 0.00347562 5.86748 0.000214245 5.68263C-0.00304713 5.49779 0.0309562 5.31418 0.100195 5.14276C0.169434 4.97134 0.27249 4.81562 0.403216 4.6849C0.533941 4.55417 0.689658 4.45112 0.861077 4.38188C1.0325 4.31264 1.2161 4.27864 1.40095 4.2819C1.58579 4.28516 1.76809 4.32562 1.93696 4.40086C2.10583 4.4761 2.25781 4.58459 2.38384 4.71984L6.22749 8.56165L12.6024 0.439341C12.6137 0.425122 12.626 0.411634 12.6391 0.398958H12.6372Z" fill="white"/>
</svg>
