<svg width="18" height="16" viewBox="0 0 18 16" fill="none" xmlns="http://www.w3.org/2000/svg">
<path d="M8.10656 11.555L12.5505 7.99987L8.10656 4.4447V7.11108H0.107422V8.88867H8.10656V11.555Z" fill="white"/>
<path d="M9.88479 -9.15304e-05C8.83382 -0.00300561 7.79271 0.202652 6.82179 0.604966C5.85086 1.00728 4.96942 1.59826 4.22852 2.34366L5.48527 3.60041C6.66025 2.42542 8.22275 1.77749 9.88479 1.77749C11.5468 1.77749 13.1093 2.42542 14.2843 3.60041C15.4593 4.77539 16.1072 6.33789 16.1072 7.99993C16.1072 9.66197 15.4593 11.2245 14.2843 12.3995C13.1093 13.5744 11.5468 14.2224 9.88479 14.2224C8.22275 14.2224 6.66025 13.5744 5.48527 12.3995L4.22852 13.6562C5.73857 15.1672 7.74725 16 9.88479 16C12.0223 16 14.031 15.1672 15.5411 13.6562C17.052 12.1462 17.8848 10.1375 17.8848 7.99993C17.8848 5.86239 17.052 3.85371 15.5411 2.34366C14.8002 1.59826 13.9187 1.00728 12.9478 0.604966C11.9769 0.202652 10.9358 -0.00300561 9.88479 -9.15304e-05V-9.15304e-05Z" fill="white"/>
</svg>
