<svg width="34" height="30" viewBox="0 0 34 30" fill="none" xmlns="http://www.w3.org/2000/svg">
<path d="M17 22C14.2386 22 12 19.5376 12 16.5C12 13.4624 14.2386 11 17 11C19.7614 11 22 13.4624 22 16.5C22 19.5376 19.7614 22 17 22Z" fill="currentColor"/>
<path d="M3.4 3.33333H8.789L10.897 1.08333C11.2138 0.742322 11.5997 0.469845 12.03 0.28331C12.4603 0.0967754 12.9255 0.000283783 13.396 0H20.604C21.556 0 22.474 0.4 23.12 1.08333L25.211 3.33333H30.6C32.47 3.33333 34 4.83333 34 6.66667V26.6667C34 28.5 32.47 30 30.6 30H3.4C1.53 30 0 28.5 0 26.6667V6.66667C0 4.83333 1.53 3.33333 3.4 3.33333ZM17 25C21.692 25 25.5 21.2667 25.5 16.6667C25.5 12.0667 21.692 8.33333 17 8.33333C12.308 8.33333 8.5 12.0667 8.5 16.6667C8.5 21.2667 12.308 25 17 25Z" fill="currentColor"/>
</svg>
