<svg width="23" height="23" viewBox="0 0 23 23" xmlns="http://www.w3.org/2000/svg">
<path d="M21.8203 9.19629H11.2354V13.5469H17.2822C17.0215 14.9531 16.2305 16.1426 15.0381 16.9395C14.0303 17.6133 12.7441 18.0117 11.2324 18.0117C8.30566 18.0117 5.83008 16.0342 4.94531 13.377C4.72266 12.7031 4.59375 11.9824 4.59375 11.2412C4.59375 10.5 4.72266 9.7793 4.94531 9.10547C5.83301 6.45117 8.30859 4.47363 11.2354 4.47363C12.8848 4.47363 14.3643 5.04199 15.5303 6.15527L18.7529 2.92969C16.8047 1.11328 14.2646 0 11.2354 0C6.84375 0 3.04395 2.51953 1.19531 6.19336C0.433594 7.71094 0 9.42773 0 11.2441C0 13.0605 0.433594 14.7744 1.19531 16.292C3.04395 19.9658 6.84375 22.4854 11.2354 22.4854C14.2705 22.4854 16.8135 21.4775 18.6709 19.7607C20.7949 17.8037 22.0225 14.9209 22.0225 11.4961C22.0225 10.6992 21.9521 9.93457 21.8203 9.19629Z"/>
</svg>
