<svg width="20" height="40" viewBox="0 0 20 40" fill="none" xmlns="http://www.w3.org/2000/svg">
<path d="M17.1619 0.00515751C17.8238 0.00385607 18.4654 0.235841 18.9751 0.660845C19.262 0.900169 19.4991 1.19409 19.6729 1.52578C19.8467 1.85746 19.9538 2.22039 19.988 2.59378C20.0222 2.96717 19.9829 3.34369 19.8723 3.70176C19.7617 4.05983 19.5819 4.39243 19.3434 4.6805L6.65081 19.9609L18.8901 35.2698C19.1254 35.5614 19.3012 35.8969 19.4072 36.2571C19.5133 36.6173 19.5475 36.995 19.508 37.3685C19.4685 37.7421 19.3561 38.1041 19.1771 38.4337C18.9981 38.7634 18.7561 39.0542 18.4651 39.2895C18.172 39.549 17.8287 39.7448 17.4568 39.8645C17.0849 39.9842 16.6924 40.0252 16.304 39.9851C15.9156 39.9449 15.5397 39.8244 15.1997 39.6311C14.8598 39.4378 14.5633 39.1759 14.3287 38.8618L0.644509 21.7569C0.227802 21.2468 -6.52501e-07 20.607 -6.52501e-07 19.9466C-6.52501e-07 19.2863 0.227802 18.6465 0.644509 18.1364L14.8103 1.03145C15.0945 0.686456 15.4556 0.413735 15.8641 0.23542C16.2727 0.0571043 16.7173 -0.0217844 17.1619 0.00515751Z" fill="currentColor"/>
</svg>
