<svg xmlns="http://www.w3.org/2000/svg" viewBox="0 0 50 46.18"><path d="M25,11.06c6.39,0,11.8,2.91,15.21,5.36,4,2.89,6.12,5.69,6.66,6.76-.54,1.07-2.62,3.87-6.66,6.76C36.8,32.39,31.39,35.3,25,35.3S13.2,32.39,9.79,29.94c-4-2.89-6.12-5.69-6.66-6.76.54-1.07,2.62-3.87,6.66-6.76C13.2,14,18.61,11.06,25,11.06m0-3C11.19,8,0,20.15,0,23.18S11.19,38.33,25,38.33,50,26.21,50,23.18,38.81,8,25,8Zm0,6.06a9.09,9.09,0,1,0,9.09,9.09h0A9.09,9.09,0,0,0,25,14.09h0Zm-2.78,9.09a3.51,3.51,0,1,1,3.51-3.51,3.51,3.51,0,0,1-3.51,3.51Z" fill="#000" stroke="none"/><path d="M4.29,1.79h0a3,3,0,0,1,4.25,0L46.72,40a3,3,0,0,1,0,4.24h0a3,3,0,0,1-4.24,0L4.29,6A3,3,0,0,1,4.29,1.79Z" stroke-width="2"/></svg>