<svg width="23" height="33" viewBox="0 0 23 33" fill="none" xmlns="http://www.w3.org/2000/svg">
<path fill-rule="evenodd" clip-rule="evenodd" d="M1.21087 33C0.542123 33 7.50531e-07 32.3443 7.50531e-07 31.5354V4.39658C-0.000831902 2.82634 0.691208 1.37492 1.81529 0.589357C2.93937 -0.196201 4.3246 -0.196469 5.44889 0.588654L21.1901 11.617C22.3104 12.403 23 13.8511 23 15.4176C23 16.9841 22.3104 18.4322 21.1901 19.2182L6.65976 29.4703C6.2844 29.759 5.80845 29.7754 5.42006 29.5133C5.03167 29.2511 4.79339 28.7525 4.79941 28.2145C4.80542 27.6766 5.05478 27.186 5.44889 26.9366L19.9793 16.6845C20.3527 16.4225 20.5826 15.9398 20.5826 15.4176C20.5826 14.8954 20.3527 14.4128 19.9793 14.1507L4.23803 3.12239C3.86264 2.86024 3.40003 2.8608 3.02507 3.12384C2.65011 3.38689 2.42001 3.8723 2.42173 4.39658V31.5354C2.42173 32.3443 1.87961 33 1.21087 33Z" fill="currentColor"/>
</svg>
