<svg width="17" height="17" viewBox="0 0 17 17" fill="none" xmlns="http://www.w3.org/2000/svg">
<path fill-rule="evenodd" clip-rule="evenodd" d="M12.7755 4.03435L4.7802 8.03253L4.3042 7.0816L12.2995 3.08447L12.7755 4.03435ZM12.2995 13.9156L4.3042 9.91847L4.78126 8.96754L12.7766 12.9657L12.3006 13.9156H12.2995Z"/>
<path fill-rule="evenodd" clip-rule="evenodd" d="M14.3438 5.3125C15.0482 5.3125 15.7239 5.03265 16.222 4.5345C16.7201 4.03636 17 3.36073 17 2.65625C17 1.95177 16.7201 1.27614 16.222 0.777998C15.7239 0.279854 15.0482 0 14.3438 0C13.6393 0 12.9636 0.279854 12.4655 0.777998C11.9674 1.27614 11.6875 1.95177 11.6875 2.65625C11.6875 3.36073 11.9674 4.03636 12.4655 4.5345C12.9636 5.03265 13.6393 5.3125 14.3438 5.3125ZM14.3438 17C15.0482 17 15.7239 16.7201 16.222 16.222C16.7201 15.7239 17 15.0482 17 14.3438C17 13.6393 16.7201 12.9636 16.222 12.4655C15.7239 11.9674 15.0482 11.6875 14.3438 11.6875C13.6393 11.6875 12.9636 11.9674 12.4655 12.4655C11.9674 12.9636 11.6875 13.6393 11.6875 14.3438C11.6875 15.0482 11.9674 15.7239 12.4655 16.222C12.9636 16.7201 13.6393 17 14.3438 17ZM2.65625 11.1562C3.36073 11.1562 4.03636 10.8764 4.5345 10.3783C5.03265 9.88011 5.3125 9.20448 5.3125 8.5C5.3125 7.79552 5.03265 7.11989 4.5345 6.62175C4.03636 6.1236 3.36073 5.84375 2.65625 5.84375C1.95177 5.84375 1.27614 6.1236 0.777998 6.62175C0.279854 7.11989 0 7.79552 0 8.5C0 9.20448 0.279854 9.88011 0.777998 10.3783C1.27614 10.8764 1.95177 11.1562 2.65625 11.1562Z"/>
</svg>
