<svg width="26" height="21" viewBox="0 0 26 21" fill="none" xmlns="http://www.w3.org/2000/svg">
<path fill-rule="evenodd" clip-rule="evenodd" d="M26 2.48849C25.0265 2.91723 23.9938 3.19845 22.9363 3.32278C24.0502 2.66032 24.8837 1.61816 25.2818 0.39039C24.2346 1.00821 23.0889 1.44365 21.8942 1.67789C21.091 0.825591 20.0271 0.260609 18.8677 0.0706431C17.7083 -0.119323 16.5183 0.0763531 15.4822 0.627296C14.4462 1.17824 13.6222 2.05363 13.1381 3.11758C12.654 4.18153 12.5369 5.37453 12.805 6.51137C10.6838 6.40603 8.60871 5.85837 6.71448 4.90397C4.82025 3.94957 3.14931 2.60979 1.81025 0.971701C1.33566 1.78073 1.08626 2.70067 1.08767 3.63712C1.08767 5.47578 2.02908 7.09914 3.46125 8.04969C2.6142 8.02245 1.78579 7.79553 1.04433 7.38764V7.45224C1.04417 8.67637 1.47022 9.86287 2.25019 10.8104C3.03016 11.7579 4.11602 12.4081 5.3235 12.6507C4.53771 12.862 3.7139 12.8933 2.91417 12.7422C3.25499 13.7954 3.91854 14.7165 4.81204 15.3766C5.70554 16.0367 6.78431 16.4028 7.8975 16.4238C6.0077 17.8966 3.67458 18.6954 1.27292 18.692C0.84175 18.692 0.417083 18.6672 0 18.6188C2.43927 20.1757 5.27786 21.0024 8.177 21C17.9888 21 23.3534 12.923 23.3534 5.91822C23.3534 5.68893 23.348 5.46071 23.3382 5.23357C24.3826 4.48296 25.2839 3.5534 26 2.48849Z"/>
</svg>
