<svg width="33" height="19" viewBox="0 0 33 19" fill="none" xmlns="http://www.w3.org/2000/svg">
<path d="M32.2434 1.28667C32.4739 0.544363 32.2434 0 31.1532 0H27.5417C26.6227 0 26.2028 0.47093 25.9722 0.988154C25.9722 0.988154 24.136 5.32868 21.534 8.14308C20.6941 8.96202 20.3104 9.22064 19.8526 9.22064C19.6237 9.22064 19.291 8.96202 19.291 8.21971V1.28667C19.291 0.3959 19.0259 0 18.2601 0H12.5851C12.012 0 11.6662 0.411864 11.6662 0.804571C11.6662 1.64745 12.9672 1.84221 13.1006 4.21761V9.37069C13.1006 10.4993 12.8914 10.7053 12.4303 10.7053C11.2067 10.7053 8.22923 6.34877 6.46218 1.3617C6.11799 0.392707 5.77051 0.00159702 4.84828 0.00159702H1.23842C0.205855 0.00159702 0 0.472526 0 0.98975C0 1.91884 1.2236 6.51638 5.69969 12.597C8.68376 16.7491 12.8848 19 16.7121 19C19.0061 19 19.2894 18.5003 19.2894 17.6383V14.4998C19.2894 13.5005 19.5084 13.2994 20.2347 13.2994C20.7682 13.2994 21.6872 13.5612 23.8297 15.5614C26.2769 17.9336 26.682 18.9984 28.0571 18.9984H31.667C32.6979 18.9984 33.2134 18.4987 32.9169 17.5122C32.5925 16.5304 31.4232 15.1017 29.8719 13.4111C29.0287 12.4469 27.7689 11.4093 27.3852 10.8904C26.85 10.2216 27.0048 9.92623 27.3852 9.33238C27.3869 9.33398 31.7856 3.32843 32.2434 1.28667Z"/>
</svg>
