<svg width="176" height="47" viewBox="0 0 176 47" xmlns="http://www.w3.org/2000/svg">
<path fill-rule="evenodd" clip-rule="evenodd" d="M21.0977 15.5052C24.6204 15.5052 27.4761 12.685 27.4761 9.20619C27.4761 5.72736 24.6204 2.90722 21.0977 2.90722C17.575 2.90722 14.7193 5.72736 14.7193 9.20619C14.7193 12.685 17.575 15.5052 21.0977 15.5052ZM21.0977 18.4124C26.2462 18.4124 30.42 14.2906 30.42 9.20619C30.42 4.12175 26.2462 0 21.0977 0C15.9492 0 11.7755 4.12175 11.7755 9.20619C11.7755 14.2906 15.9492 18.4124 21.0977 18.4124Z" fill="currentColor"/>
<path fill-rule="evenodd" clip-rule="evenodd" d="M38.2703 16.4742C40.4381 16.4742 42.1954 14.7388 42.1954 12.5979C42.1954 10.4571 40.4381 8.72165 38.2703 8.72165C36.1025 8.72165 34.3451 10.4571 34.3451 12.5979C34.3451 14.7388 36.1025 16.4742 38.2703 16.4742ZM38.2703 19.3814C42.0639 19.3814 45.1393 16.3444 45.1393 12.5979C45.1393 8.85151 42.0639 5.81443 38.2703 5.81443C34.4766 5.81443 31.4012 8.85151 31.4012 12.5979C31.4012 16.3444 34.4766 19.3814 38.2703 19.3814Z" fill="currentColor"/>
<path fill-rule="evenodd" clip-rule="evenodd" d="M2.59965 27.59V39.2758L9.1758 32.8285L2.59965 27.59ZM0 27.59C0 25.5424 2.61879 24.4433 4.30223 25.7843L10.8784 31.0228C11.9935 31.911 12.0815 33.4733 11.0723 34.4627L4.49618 40.9101C2.88436 42.4903 0 41.442 0 39.2758V27.59Z" fill="currentColor"/>
<path fill-rule="evenodd" clip-rule="evenodd" d="M12.8109 22.0344C12.5203 22.0025 12.2661 22.2271 12.2661 22.5159V43.6082C12.2661 43.8758 12.4858 44.0928 12.7568 44.0928H44.158C44.429 44.0928 44.6487 43.8758 44.6487 43.6082V36.6159C44.6487 36.3695 44.4615 36.1624 44.2137 36.1345L28.7809 34.3927C27.9732 34.3015 27.3933 33.581 27.4856 32.7834C27.5779 31.9858 28.3075 31.4131 29.1152 31.5042L44.548 33.246C46.2826 33.4418 47.5925 34.8917 47.5925 36.6159V43.6082C47.5925 45.4815 46.0548 47 44.158 47H12.7568C10.8599 47 9.32224 45.4815 9.32224 43.6082V22.5159C9.32224 20.4944 11.1015 18.9217 13.136 19.1449L45.0854 22.6507C46.3712 22.7918 47.4677 23.6345 47.9219 24.8307L48.9707 27.5927C49.2562 28.3444 48.8705 29.1823 48.1093 29.4641C47.3482 29.746 46.4997 29.3652 46.2143 28.6135L45.1655 25.8515C45.1006 25.6806 44.944 25.5602 44.7603 25.5401L12.8109 22.0344Z" fill="currentColor"/>
<path d="M57.9637 23.169L53.3664 4.95155H57.6411L60.8135 18.8H61.0286L64.1204 4.95155H68.3413L63.744 23.169H57.9637Z" fill="currentColor"/>
<path d="M70.3348 23.169V4.95155H81.4651V8.36732H74.5019V12.2597H80.4703V15.6755H74.5019V19.7532H81.4651V23.169H70.3348Z" fill="currentColor"/>
<path d="M93.44 23.169L91.2892 16.7876H88.6007V23.169H84.4335V4.95155H92.042C93.5654 4.95155 94.7125 5.18103 95.4832 5.64C96.2539 6.08131 96.7647 6.71681 97.0157 7.54648C97.2845 8.37615 97.4189 9.47943 97.4189 10.8563C97.4189 12.145 97.2756 13.2483 96.9888 14.1662C96.702 15.0665 96.1195 15.7284 95.2413 16.1521L97.8222 23.169H93.44ZM90.6977 13.3983C91.4863 13.3983 92.042 13.3365 92.3646 13.213C92.7051 13.0894 92.9292 12.8687 93.0367 12.551C93.1442 12.2156 93.198 11.6595 93.198 10.8828C93.198 10.0884 93.1442 9.53239 93.0367 9.21465C92.9471 8.87925 92.732 8.65859 92.3915 8.55267C92.0688 8.42911 91.5132 8.36732 90.7246 8.36732H88.6007V13.3983H90.6977Z" fill="currentColor"/>
<path d="M103.527 23.169V16.8935L98.2038 4.95155H102.505L105.597 12.7099H105.812L108.823 4.95155H113.017L107.721 16.8935V23.169H103.527Z" fill="currentColor"/>
<path d="M120.762 15.8344V12.5775H126.811V22.7718C126.022 22.9484 125.099 23.0896 124.042 23.1955C123.002 23.3191 122.043 23.3808 121.165 23.3808C119.104 23.3808 117.572 23.1425 116.568 22.6659C115.582 22.1716 114.892 21.2802 114.498 19.9915C114.121 18.7029 113.933 16.7258 113.933 14.0603C113.933 11.5183 114.13 9.59418 114.525 8.28789C114.919 6.9816 115.627 6.06366 116.649 5.53408C117.688 5.00451 119.238 4.73972 121.3 4.73972C122.303 4.73972 123.334 4.81033 124.391 4.95155C125.449 5.07512 126.228 5.19868 126.73 5.32225V8.49972C124.866 8.27023 123.522 8.15549 122.698 8.15549C121.174 8.15549 120.135 8.25258 119.579 8.44676C119.023 8.64094 118.647 9.12638 118.45 9.9031C118.253 10.6622 118.154 12.0479 118.154 14.0603C118.154 15.8961 118.217 17.2113 118.342 18.0056C118.486 18.8 118.763 19.3384 119.176 19.6208C119.606 19.9033 120.314 20.0445 121.3 20.0445C121.73 20.0445 122.267 20.0269 122.913 19.9915V15.8344H120.762Z" fill="currentColor"/>
<path d="M136.57 23.3808C134.33 23.3808 132.726 23.1161 131.758 22.5865C130.808 22.0392 130.208 21.1743 129.957 19.9915C129.724 18.7912 129.607 16.8141 129.607 14.0603C129.607 11.3065 129.724 9.33821 129.957 8.15549C130.208 6.95512 130.808 6.09014 131.758 5.56056C132.726 5.01333 134.33 4.73972 136.57 4.73972C138.829 4.73972 140.433 5.01333 141.383 5.56056C142.351 6.09014 142.951 6.94629 143.184 8.12901C143.417 9.31174 143.534 11.2888 143.534 14.0603C143.534 16.8317 143.417 18.8088 143.184 19.9915C142.951 21.1743 142.351 22.0392 141.383 22.5865C140.433 23.1161 138.829 23.3808 136.57 23.3808ZM136.57 19.9651C137.538 19.9651 138.184 19.868 138.506 19.6738C138.847 19.4796 139.062 19.0207 139.151 18.2969C139.241 17.5731 139.286 16.1609 139.286 14.0603C139.286 11.9596 139.241 10.5474 139.151 9.82366C139.062 9.09991 138.847 8.64094 138.506 8.44676C138.184 8.25258 137.538 8.15549 136.57 8.15549C135.603 8.15549 134.948 8.25258 134.608 8.44676C134.285 8.64094 134.079 9.09991 133.989 9.82366C133.9 10.5474 133.855 11.9596 133.855 14.0603C133.855 16.1609 133.9 17.5731 133.989 18.2969C134.079 19.0207 134.285 19.4796 134.608 19.6738C134.948 19.868 135.603 19.9651 136.57 19.9651Z" fill="currentColor"/>
<path d="M153.032 23.3808C150.792 23.3808 149.188 23.1161 148.22 22.5865C147.27 22.0392 146.669 21.1743 146.418 19.9915C146.185 18.7912 146.069 16.8141 146.069 14.0603C146.069 11.3065 146.185 9.33821 146.418 8.15549C146.669 6.95512 147.27 6.09014 148.22 5.56056C149.188 5.01333 150.792 4.73972 153.032 4.73972C155.29 4.73972 156.895 5.01333 157.845 5.56056C158.812 6.09014 159.413 6.94629 159.646 8.12901C159.879 9.31174 159.995 11.2888 159.995 14.0603C159.995 16.8317 159.879 18.8088 159.646 19.9915C159.413 21.1743 158.812 22.0392 157.845 22.5865C156.895 23.1161 155.29 23.3808 153.032 23.3808ZM153.032 19.9651C154 19.9651 154.645 19.868 154.968 19.6738C155.308 19.4796 155.523 19.0207 155.613 18.2969C155.703 17.5731 155.747 16.1609 155.747 14.0603C155.747 11.9596 155.703 10.5474 155.613 9.82366C155.523 9.09991 155.308 8.64094 154.968 8.44676C154.645 8.25258 154 8.15549 153.032 8.15549C152.064 8.15549 151.41 8.25258 151.07 8.44676C150.747 8.64094 150.541 9.09991 150.451 9.82366C150.362 10.5474 150.317 11.9596 150.317 14.0603C150.317 16.1609 150.362 17.5731 150.451 18.2969C150.541 19.0207 150.747 19.4796 151.07 19.6738C151.41 19.868 152.064 19.9651 153.032 19.9651Z" fill="currentColor"/>
<path d="M162.988 4.95155H168.795C171.125 4.95155 172.783 5.21634 173.769 5.74591C174.772 6.27549 175.391 7.12282 175.624 8.28789C175.875 9.45296 176 11.3771 176 14.0603C176 16.7435 175.875 18.6676 175.624 19.8327C175.391 20.9977 174.772 21.8451 173.769 22.3746C172.783 22.9042 171.125 23.169 168.795 23.169H162.988V4.95155ZM168.687 19.7532C169.799 19.7532 170.542 19.665 170.919 19.4884C171.295 19.3119 171.528 18.8794 171.618 18.191C171.725 17.4849 171.779 16.108 171.779 14.0603C171.779 12.0126 171.725 10.6445 171.618 9.95606C171.51 9.24995 171.268 8.80864 170.892 8.63211C170.533 8.45559 169.799 8.36732 168.687 8.36732H167.155V19.7532H168.687Z" fill="currentColor"/>
<path d="M55.571 45.0141V26.7966H65.2495V28.2H57.1572V35.5082H64.3892V36.8851H57.1572V45.0141H55.571Z" fill="red"/>
<path d="M68.6727 45.0141V26.7966H70.2589V45.0141H68.6727Z" fill="red"/>
<path d="M75.2358 45.0141V26.7966H76.822V43.5842H84.4573V45.0141H75.2358Z" fill="red"/>
<path d="M102.389 45.0141V29.5769H102.282L96.4206 45.0141H95.0226L89.1886 29.5769H89.0811V45.0141H87.5755V26.7966H89.7801L95.6947 42.4456H95.8292L101.771 26.7966H103.948V45.0141H102.389Z" fill="red"/>
</svg>
