<svg xmlns="http://www.w3.org/2000/svg" xmlns:xlink="http://www.w3.org/1999/xlink"><symbol id="fb" viewBox="0 0 12 24">
<path d="M8 8V5.6C8 4.56 8.24 4 9.92 4H12V0H8.8C4.8 0 3.2 2.64 3.2 5.6V8H0V12H3.2V24H8V12H11.52L12 8H8Z"/>
</symbol><symbol id="inst" viewBox="0 0 22 22">
<path d="M11 0C8.00969 0 7.63702 0.0144393 6.46675 0.0639455C5.29166 0.121703 4.49681 0.303913 3.79547 0.576197C3.06145 0.853308 2.39669 1.28717 1.84754 1.84754C1.28561 2.39541 0.851504 3.06054 0.576197 3.79547C0.303913 4.49681 0.121703 5.29166 0.0639455 6.46675C0.0110014 7.6377 0 8.00969 0 11C0 13.9903 0.0144393 14.363 0.0639455 15.5333C0.121703 16.7049 0.303913 17.5032 0.576197 18.2045C0.853308 18.9385 1.28717 19.6033 1.84754 20.1525C2.39541 20.7144 3.06054 21.1485 3.79547 21.4238C4.49681 21.6926 5.2951 21.8783 6.46675 21.9361C7.63771 21.989 8.00969 22 11 22C13.9903 22 14.363 21.9856 15.5333 21.9361C16.7049 21.8783 17.5032 21.692 18.2045 21.4238C18.9386 21.1467 19.6033 20.7128 20.1525 20.1525C20.7151 19.6052 21.1493 18.9399 21.4238 18.2045C21.6926 17.5032 21.8783 16.7049 21.9361 15.5333C21.989 14.3623 22 13.9903 22 11C22 8.00969 21.9856 7.63702 21.9361 6.46675C21.8783 5.2951 21.692 4.49269 21.4238 3.79547C21.1467 3.06145 20.7128 2.39669 20.1525 1.84754C19.6052 1.28488 18.9399 0.850667 18.2045 0.576197C17.5032 0.303913 16.7049 0.121703 15.5333 0.0639455C14.3623 0.0110014 13.9903 0 11 0ZM11 1.98025C13.9367 1.98025 14.2873 1.99469 15.448 2.04419C16.5186 2.09439 17.1016 2.27316 17.4888 2.42443C17.9673 2.60108 18.4005 2.88226 18.7567 3.24747C19.1213 3.60214 19.4014 4.03431 19.5763 4.51194C19.7275 4.89905 19.9063 5.48212 19.9565 6.55269C20.006 7.71334 20.0204 8.0647 20.0204 11.0007C20.0204 13.9367 20.006 14.288 19.9524 15.4487C19.8946 16.5193 19.7158 17.1023 19.5653 17.4894C19.3569 18.0058 19.1245 18.3668 18.7408 18.7573C18.3835 19.1203 17.9506 19.4001 17.4729 19.5769C17.0906 19.7282 16.4993 19.907 15.4246 19.9572C14.2578 20.0067 13.914 20.0211 10.9697 20.0211C8.0255 20.0211 7.6824 20.0067 6.51419 19.9531C5.44362 19.8953 4.85298 19.7165 4.46587 19.5659C3.94331 19.3576 3.58507 19.1252 3.2014 18.7415C2.81429 18.3544 2.56813 17.9859 2.37836 17.4736C2.22434 17.0913 2.04832 16.5 1.99125 15.4253C1.95206 14.2722 1.93349 13.9147 1.93349 10.9842C1.93349 8.05507 1.95206 7.69684 1.99125 6.52932C2.04832 5.45462 2.22434 4.86467 2.37836 4.481C2.56813 3.95774 2.81498 3.6002 3.2014 3.21309C3.58439 2.8301 3.94331 2.58257 4.46587 2.38867C4.85298 2.23809 5.42918 2.05932 6.50388 2.00569C7.67071 1.96375 8.0145 1.94862 10.9546 1.94862L11 1.98025ZM11 5.35423C10.2583 5.35396 9.52388 5.49984 8.83861 5.78354C8.15335 6.06724 7.5307 6.4832 7.00626 7.00764C6.48182 7.53208 6.06587 8.15472 5.78217 8.83999C5.49847 9.52525 5.35259 10.2597 5.35286 11.0014C5.35259 11.743 5.49847 12.4775 5.78217 13.1628C6.06587 13.848 6.48182 14.4707 7.00626 14.9951C7.5307 15.5196 8.15335 15.9355 8.83861 16.2192C9.52388 16.5029 10.2583 16.6488 11 16.6485C11.7417 16.6488 12.4761 16.5029 13.1614 16.2192C13.8467 15.9355 14.4693 15.5196 14.9937 14.9951C15.5182 14.4707 15.9341 13.848 16.2178 13.1628C16.5015 12.4775 16.6474 11.743 16.6471 11.0014C16.6474 10.2597 16.5015 9.52525 16.2178 8.83999C15.9341 8.15472 15.5182 7.53208 14.9937 7.00764C14.4693 6.4832 13.8467 6.06724 13.1614 5.78354C12.4761 5.49984 11.7417 5.35396 11 5.35423ZM11 14.6683C8.973 14.6683 7.3331 13.0284 7.3331 11.0014C7.3331 8.97437 8.973 7.33448 11 7.33448C13.027 7.33448 14.6669 8.97437 14.6669 11.0014C14.6669 13.0284 13.027 14.6683 11 14.6683ZM18.1949 5.1287C18.1945 5.47914 18.0551 5.8151 17.8071 6.06277C17.5592 6.31044 17.2231 6.44956 16.8727 6.44956C16.6994 6.44956 16.5278 6.41543 16.3677 6.34912C16.2076 6.28281 16.0622 6.18562 15.9397 6.06309C15.8171 5.94057 15.7199 5.79511 15.6536 5.63502C15.5873 5.47493 15.5532 5.30336 15.5532 5.13008C15.5532 4.9568 15.5873 4.78522 15.6536 4.62514C15.7199 4.46505 15.8171 4.31959 15.9397 4.19707C16.0622 4.07454 16.2076 3.97735 16.3677 3.91104C16.5278 3.84473 16.6994 3.8106 16.8727 3.8106C17.5995 3.8106 18.1949 4.40193 18.1949 5.1287Z"/>
</symbol><symbol id="search" viewBox="0 0 20 20">
<path d="M19.3166 16.011L15.9381 12.6277L13.3395 11.5525C14.2047 10.3203 14.6683 8.85023 14.6666 7.34382C14.6666 3.29441 11.3769 0 7.33332 0C3.2897 0 0 3.29441 0 7.34382C0 11.3932 3.2897 14.6876 7.33332 14.6876C8.85066 14.6894 10.3308 14.2171 11.5674 13.3367L12.6383 15.932L16.0166 19.3155C16.2333 19.5325 16.4905 19.7047 16.7736 19.8221C17.0567 19.9395 17.3601 20 17.6666 20C17.973 20 18.2764 19.9396 18.5595 19.8222C18.8426 19.7047 19.0998 19.5326 19.3165 19.3156C19.5332 19.0987 19.7051 18.8411 19.8224 18.5576C19.9396 18.2741 20 17.9702 20 17.6634C20 17.3565 19.9397 17.0526 19.8224 16.7691C19.7052 16.4856 19.5333 16.228 19.3166 16.011ZM1.33333 7.34382C1.33333 4.03076 4.02499 1.33524 7.33332 1.33524C10.6416 1.33524 13.3333 4.03076 13.3333 7.34382C13.3333 10.6569 10.6416 13.3524 7.33332 13.3524C4.02499 13.3524 1.33333 10.6569 1.33333 7.34382ZM18.3738 18.3714C18.1861 18.5589 17.9318 18.6642 17.6666 18.6642C17.4015 18.6642 17.1472 18.5589 16.9595 18.3714L13.769 15.1763L12.7734 12.7631L15.1833 13.7601L18.3738 16.9552C18.5611 17.1431 18.6662 17.3978 18.6662 17.6633C18.6662 17.9288 18.561 18.1835 18.3738 18.3714Z"/>
</symbol><symbol id="share" viewBox="0 0 17 17">
<path fill-rule="evenodd" clip-rule="evenodd" d="M12.7755 4.03435L4.7802 8.03253L4.3042 7.0816L12.2995 3.08447L12.7755 4.03435ZM12.2995 13.9156L4.3042 9.91847L4.78126 8.96754L12.7766 12.9657L12.3006 13.9156H12.2995Z"/>
<path fill-rule="evenodd" clip-rule="evenodd" d="M14.3438 5.3125C15.0482 5.3125 15.7239 5.03265 16.222 4.5345C16.7201 4.03636 17 3.36073 17 2.65625C17 1.95177 16.7201 1.27614 16.222 0.777998C15.7239 0.279854 15.0482 0 14.3438 0C13.6393 0 12.9636 0.279854 12.4655 0.777998C11.9674 1.27614 11.6875 1.95177 11.6875 2.65625C11.6875 3.36073 11.9674 4.03636 12.4655 4.5345C12.9636 5.03265 13.6393 5.3125 14.3438 5.3125ZM14.3438 17C15.0482 17 15.7239 16.7201 16.222 16.222C16.7201 15.7239 17 15.0482 17 14.3438C17 13.6393 16.7201 12.9636 16.222 12.4655C15.7239 11.9674 15.0482 11.6875 14.3438 11.6875C13.6393 11.6875 12.9636 11.9674 12.4655 12.4655C11.9674 12.9636 11.6875 13.6393 11.6875 14.3438C11.6875 15.0482 11.9674 15.7239 12.4655 16.222C12.9636 16.7201 13.6393 17 14.3438 17ZM2.65625 11.1562C3.36073 11.1562 4.03636 10.8764 4.5345 10.3783C5.03265 9.88011 5.3125 9.20448 5.3125 8.5C5.3125 7.79552 5.03265 7.11989 4.5345 6.62175C4.03636 6.1236 3.36073 5.84375 2.65625 5.84375C1.95177 5.84375 1.27614 6.1236 0.777998 6.62175C0.279854 7.11989 0 7.79552 0 8.5C0 9.20448 0.279854 9.88011 0.777998 10.3783C1.27614 10.8764 1.95177 11.1562 2.65625 11.1562Z"/>
</symbol><symbol id="star" viewBox="0 0 33 31"><path d="M1.19,12.67l7,6.94L6.68,29.27a.67.67,0,0,0,0,.34.64.64,0,0,0,.22.27.66.66,0,0,0,.33.12.65.65,0,0,0,.34-.07l8.89-4.4,8.89,4.4a.65.65,0,0,0,.34.07.66.66,0,0,0,.33-.12.64.64,0,0,0,.22-.27.67.67,0,0,0,0-.34L24.8,19.61l7-6.94A.64.64,0,0,0,32,12a.65.65,0,0,0-.51-.43L21.63,10,17.08,1.35a.65.65,0,0,0-1.16,0L11.37,10,1.54,11.6a.73.73,0,0,0-.31.14A.72.72,0,0,0,1,12a.64.64,0,0,0,.16.64Z" stroke-miterlimit="10"/></symbol><symbol id="tw" viewBox="0 0 26 21">
<path fill-rule="evenodd" clip-rule="evenodd" d="M26 2.48849C25.0265 2.91723 23.9938 3.19845 22.9363 3.32278C24.0502 2.66032 24.8837 1.61816 25.2818 0.39039C24.2346 1.00821 23.0889 1.44365 21.8942 1.67789C21.091 0.825591 20.0271 0.260609 18.8677 0.0706431C17.7083 -0.119323 16.5183 0.0763531 15.4822 0.627296C14.4462 1.17824 13.6222 2.05363 13.1381 3.11758C12.654 4.18153 12.5369 5.37453 12.805 6.51137C10.6838 6.40603 8.60871 5.85837 6.71448 4.90397C4.82025 3.94957 3.14931 2.60979 1.81025 0.971701C1.33566 1.78073 1.08626 2.70067 1.08767 3.63712C1.08767 5.47578 2.02908 7.09914 3.46125 8.04969C2.6142 8.02245 1.78579 7.79553 1.04433 7.38764V7.45224C1.04417 8.67637 1.47022 9.86287 2.25019 10.8104C3.03016 11.7579 4.11602 12.4081 5.3235 12.6507C4.53771 12.862 3.7139 12.8933 2.91417 12.7422C3.25499 13.7954 3.91854 14.7165 4.81204 15.3766C5.70554 16.0367 6.78431 16.4028 7.8975 16.4238C6.0077 17.8966 3.67458 18.6954 1.27292 18.692C0.84175 18.692 0.417083 18.6672 0 18.6188C2.43927 20.1757 5.27786 21.0024 8.177 21C17.9888 21 23.3534 12.923 23.3534 5.91822C23.3534 5.68893 23.348 5.46071 23.3382 5.23357C24.3826 4.48296 25.2839 3.5534 26 2.48849Z"/>
</symbol><symbol id="vk" viewBox="0 0 33 19">
<path d="M32.2434 1.28667C32.4739 0.544363 32.2434 0 31.1532 0H27.5417C26.6227 0 26.2028 0.47093 25.9722 0.988154C25.9722 0.988154 24.136 5.32868 21.534 8.14308C20.6941 8.96202 20.3104 9.22064 19.8526 9.22064C19.6237 9.22064 19.291 8.96202 19.291 8.21971V1.28667C19.291 0.3959 19.0259 0 18.2601 0H12.5851C12.012 0 11.6662 0.411864 11.6662 0.804571C11.6662 1.64745 12.9672 1.84221 13.1006 4.21761V9.37069C13.1006 10.4993 12.8914 10.7053 12.4303 10.7053C11.2067 10.7053 8.22923 6.34877 6.46218 1.3617C6.11799 0.392707 5.77051 0.00159702 4.84828 0.00159702H1.23842C0.205855 0.00159702 0 0.472526 0 0.98975C0 1.91884 1.2236 6.51638 5.69969 12.597C8.68376 16.7491 12.8848 19 16.7121 19C19.0061 19 19.2894 18.5003 19.2894 17.6383V14.4998C19.2894 13.5005 19.5084 13.2994 20.2347 13.2994C20.7682 13.2994 21.6872 13.5612 23.8297 15.5614C26.2769 17.9336 26.682 18.9984 28.0571 18.9984H31.667C32.6979 18.9984 33.2134 18.4987 32.9169 17.5122C32.5925 16.5304 31.4232 15.1017 29.8719 13.4111C29.0287 12.4469 27.7689 11.4093 27.3852 10.8904C26.85 10.2216 27.0048 9.92623 27.3852 9.33238C27.3869 9.33398 31.7856 3.32843 32.2434 1.28667Z"/>
</symbol><symbol id="yt" viewBox="0 0 30 22">
<path d="M30 10.9052C30 10.8307 30 10.7461 29.9967 10.6479C29.9933 10.3737 29.9866 10.0656 29.9799 9.73715C29.9531 8.79255 29.9062 7.85134 29.8326 6.9643C29.7321 5.74207 29.5848 4.72299 29.3839 3.95783C29.1719 3.15932 28.7564 2.43107 28.1788 1.84585C27.6012 1.26063 26.8819 0.838952 26.0926 0.622961C25.1451 0.365651 23.2902 0.206525 20.6786 0.108341C19.4364 0.0609417 18.1071 0.0304707 16.7779 0.0135424C16.3125 0.00677111 15.8806 0.00338566 15.4922 0H14.5078C14.1194 0.00338566 13.6875 0.00677111 13.2221 0.0135424C11.8929 0.0304707 10.5636 0.0609417 9.32143 0.108341C6.70982 0.209911 4.85156 0.369036 3.90737 0.622961C3.11786 0.838422 2.39822 1.25992 1.82057 1.84522C1.24292 2.43052 0.827545 3.15906 0.616071 3.95783C0.41183 4.72299 0.267857 5.74207 0.167411 6.9643C0.09375 7.85134 0.0468749 8.79255 0.0200892 9.73715C0.0100446 10.0656 0.00669638 10.3737 0.00334816 10.6479C0.00334816 10.7461 0 10.8307 0 10.9052V11.0948C0 11.1693 -5.12227e-08 11.2539 0.00334816 11.3521C0.00669638 11.6263 0.0133928 11.9344 0.0200892 12.2628C0.0468749 13.2074 0.09375 14.1487 0.167411 15.0357C0.267857 16.2579 0.415179 17.277 0.616071 18.0422C1.04464 19.6639 2.30357 20.9437 3.90737 21.377C4.85156 21.6343 6.70982 21.7935 9.32143 21.8917C10.5636 21.9391 11.8929 21.9695 13.2221 21.9865C13.6875 21.9932 14.1194 21.9966 14.5078 22H15.4922C15.8806 21.9966 16.3125 21.9932 16.7779 21.9865C18.1071 21.9695 19.4364 21.9391 20.6786 21.8917C23.2902 21.7901 25.1484 21.631 26.0926 21.377C27.6964 20.9437 28.9554 19.6673 29.3839 18.0422C29.5882 17.277 29.7321 16.2579 29.8326 15.0357C29.9062 14.1487 29.9531 13.2074 29.9799 12.2628C29.99 11.9344 29.9933 11.6263 29.9967 11.3521C29.9967 11.2539 30 11.1693 30 11.0948V10.9052ZM27.5893 11.0813C27.5893 11.1524 27.5893 11.2302 27.5859 11.3216C27.5826 11.5857 27.5759 11.8769 27.5692 12.1917C27.5458 13.0923 27.4989 13.9929 27.4286 14.8292C27.3382 15.9194 27.2109 16.8132 27.0536 17.4124C26.846 18.1945 26.2366 18.8141 25.4665 19.0206C24.7634 19.2102 22.9922 19.3626 20.5848 19.454C19.3661 19.5014 18.0536 19.5319 16.7444 19.5488C16.2857 19.5556 15.8605 19.5589 15.4788 19.5589H14.5212L13.2556 19.5488C11.9464 19.5319 10.6373 19.5014 9.41518 19.454C7.00781 19.3592 5.23326 19.2102 4.53348 19.0206C3.76339 18.8107 3.15402 18.1945 2.94643 17.4124C2.78906 16.8132 2.66183 15.9194 2.57143 14.8292C2.50112 13.9929 2.45759 13.0923 2.4308 12.1917C2.42076 11.8769 2.41741 11.5823 2.41406 11.3216C2.41406 11.2302 2.41071 11.149 2.41071 11.0813V10.9187C2.41071 10.8476 2.41071 10.7698 2.41406 10.6784C2.41741 10.4143 2.42411 10.1231 2.4308 9.80825C2.45424 8.90766 2.50112 8.00708 2.57143 7.17082C2.66183 6.08064 2.78906 5.18683 2.94643 4.58756C3.15402 3.80548 3.76339 3.1859 4.53348 2.97938C5.23661 2.78978 7.00781 2.63743 9.41518 2.54601C10.6339 2.49861 11.9464 2.46814 13.2556 2.45122C13.7143 2.44444 14.1395 2.44106 14.5212 2.44106H15.4788L16.7444 2.45122C18.0536 2.46814 19.3627 2.49861 20.5848 2.54601C22.9922 2.64081 24.7667 2.78978 25.4665 2.97938C26.2366 3.18929 26.846 3.80548 27.0536 4.58756C27.2109 5.18683 27.3382 6.08064 27.4286 7.17082C27.4989 8.00708 27.5424 8.90766 27.5692 9.80825C27.5792 10.1231 27.5826 10.4177 27.5859 10.6784C27.5859 10.7698 27.5893 10.851 27.5893 10.9187V11.0813ZM12.0201 15.5368L19.7879 10.9661L12.0201 6.46322V15.5368Z"/>
</symbol></svg>